<svg xmlns="http://www.w3.org/2000/svg" width="1000" height="578" viewBox="0 0 1000 578"><defs>
  <linearGradient id="base" gradientUnits="userSpaceOnUse" x1="0" y1="0" x2="1000" y2="578"><stop offset="0" stop-color="rgb(178,142,82)"/><stop offset="0.005" stop-color="rgb(178,142,82)"/><stop offset="0.01" stop-color="rgb(179,143,83)"/><stop offset="0.015" stop-color="rgb(179,143,83)"/><stop offset="0.02" stop-color="rgb(180,143,83)"/><stop offset="0.025" stop-color="rgb(180,144,84)"/><stop offset="0.03" stop-color="rgb(181,144,84)"/><stop offset="0.035" stop-color="rgb(181,145,85)"/><stop offset="0.04" stop-color="rgb(182,145,85)"/><stop offset="0.045" stop-color="rgb(183,146,86)"/><stop offset="0.05" stop-color="rgb(183,146,87)"/><stop offset="0.055" stop-color="rgb(184,147,87)"/><stop offset="0.06" stop-color="rgb(185,148,88)"/><stop offset="0.065" stop-color="rgb(185,148,88)"/><stop offset="0.07" stop-color="rgb(186,149,89)"/><stop offset="0.075" stop-color="rgb(187,149,90)"/><stop offset="0.08" stop-color="rgb(188,150,90)"/><stop offset="0.085" stop-color="rgb(189,151,91)"/><stop offset="0.09" stop-color="rgb(189,151,92)"/><stop offset="0.095" stop-color="rgb(190,152,92)"/><stop offset="0.1" stop-color="rgb(191,153,93)"/><stop offset="0.105" stop-color="rgb(192,153,94)"/><stop offset="0.11" stop-color="rgb(192,154,95)"/><stop offset="0.115" stop-color="rgb(193,155,95)"/><stop offset="0.12" stop-color="rgb(194,155,96)"/><stop offset="0.125" stop-color="rgb(195,156,97)"/><stop offset="0.13" stop-color="rgb(196,157,97)"/><stop offset="0.135" stop-color="rgb(196,157,98)"/><stop offset="0.14" stop-color="rgb(197,158,99)"/><stop offset="0.145" stop-color="rgb(198,159,100)"/><stop offset="0.15" stop-color="rgb(198,159,100)"/><stop offset="0.155" stop-color="rgb(199,160,101)"/><stop offset="0.16" stop-color="rgb(200,161,102)"/><stop offset="0.165" stop-color="rgb(200,161,102)"/><stop offset="0.17" stop-color="rgb(201,162,103)"/><stop offset="0.175" stop-color="rgb(202,163,104)"/><stop offset="0.18" stop-color="rgb(202,163,105)"/><stop offset="0.185" stop-color="rgb(203,164,105)"/><stop offset="0.19" stop-color="rgb(204,165,106)"/><stop offset="0.195" stop-color="rgb(204,165,107)"/><stop offset="0.2" stop-color="rgb(205,166,108)"/><stop offset="0.205" stop-color="rgb(205,167,108)"/><stop offset="0.21" stop-color="rgb(206,168,109)"/><stop offset="0.215" stop-color="rgb(207,168,110)"/><stop offset="0.22" stop-color="rgb(207,169,111)"/><stop offset="0.225" stop-color="rgb(208,170,111)"/><stop offset="0.23" stop-color="rgb(208,170,112)"/><stop offset="0.235" stop-color="rgb(209,171,113)"/><stop offset="0.24" stop-color="rgb(209,172,114)"/><stop offset="0.245" stop-color="rgb(210,173,115)"/><stop offset="0.25" stop-color="rgb(210,173,115)"/><stop offset="0.255" stop-color="rgb(211,174,116)"/><stop offset="0.26" stop-color="rgb(211,175,117)"/><stop offset="0.265" stop-color="rgb(212,175,118)"/><stop offset="0.27" stop-color="rgb(212,176,119)"/><stop offset="0.275" stop-color="rgb(213,177,119)"/><stop offset="0.28" stop-color="rgb(213,178,120)"/><stop offset="0.285" stop-color="rgb(214,178,121)"/><stop offset="0.29" stop-color="rgb(214,179,122)"/><stop offset="0.295" stop-color="rgb(215,180,123)"/><stop offset="0.3" stop-color="rgb(215,180,124)"/><stop offset="0.305" stop-color="rgb(216,181,124)"/><stop offset="0.31" stop-color="rgb(216,182,125)"/><stop offset="0.315" stop-color="rgb(217,182,126)"/><stop offset="0.32" stop-color="rgb(217,183,127)"/><stop offset="0.325" stop-color="rgb(217,184,128)"/><stop offset="0.33" stop-color="rgb(218,184,129)"/><stop offset="0.335" stop-color="rgb(218,185,129)"/><stop offset="0.34" stop-color="rgb(218,185,130)"/><stop offset="0.345" stop-color="rgb(219,186,131)"/><stop offset="0.35" stop-color="rgb(219,187,132)"/><stop offset="0.355" stop-color="rgb(220,187,133)"/><stop offset="0.36" stop-color="rgb(220,188,134)"/><stop offset="0.365" stop-color="rgb(220,189,135)"/><stop offset="0.37" stop-color="rgb(221,189,136)"/><stop offset="0.375" stop-color="rgb(221,190,137)"/><stop offset="0.38" stop-color="rgb(221,191,138)"/><stop offset="0.385" stop-color="rgb(222,191,139)"/><stop offset="0.39" stop-color="rgb(222,192,140)"/><stop offset="0.395" stop-color="rgb(222,193,141)"/><stop offset="0.4" stop-color="rgb(222,193,142)"/><stop offset="0.405" stop-color="rgb(223,194,143)"/><stop offset="0.41" stop-color="rgb(223,194,144)"/><stop offset="0.415" stop-color="rgb(223,195,144)"/><stop offset="0.42" stop-color="rgb(224,196,145)"/><stop offset="0.425" stop-color="rgb(224,196,146)"/><stop offset="0.43" stop-color="rgb(224,197,147)"/><stop offset="0.435" stop-color="rgb(224,197,148)"/><stop offset="0.44" stop-color="rgb(225,198,149)"/><stop offset="0.445" stop-color="rgb(225,198,149)"/><stop offset="0.45" stop-color="rgb(225,199,150)"/><stop offset="0.455" stop-color="rgb(225,199,151)"/><stop offset="0.46" stop-color="rgb(225,199,151)"/><stop offset="0.465" stop-color="rgb(225,200,152)"/><stop offset="0.47" stop-color="rgb(226,200,152)"/><stop offset="0.475" stop-color="rgb(226,200,153)"/><stop offset="0.48" stop-color="rgb(226,201,153)"/><stop offset="0.485" stop-color="rgb(226,201,154)"/><stop offset="0.49" stop-color="rgb(226,201,154)"/><stop offset="0.495" stop-color="rgb(226,201,154)"/><stop offset="0.5" stop-color="rgb(226,201,155)"/><stop offset="0.505" stop-color="rgb(226,201,155)"/><stop offset="0.51" stop-color="rgb(226,202,155)"/><stop offset="0.515" stop-color="rgb(226,201,155)"/><stop offset="0.52" stop-color="rgb(226,201,155)"/><stop offset="0.525" stop-color="rgb(226,201,154)"/><stop offset="0.53" stop-color="rgb(226,201,154)"/><stop offset="0.535" stop-color="rgb(226,201,153)"/><stop offset="0.54" stop-color="rgb(226,200,153)"/><stop offset="0.545" stop-color="rgb(225,200,152)"/><stop offset="0.55" stop-color="rgb(225,199,152)"/><stop offset="0.555" stop-color="rgb(225,199,151)"/><stop offset="0.56" stop-color="rgb(225,198,150)"/><stop offset="0.565" stop-color="rgb(224,198,149)"/><stop offset="0.57" stop-color="rgb(224,197,148)"/><stop offset="0.575" stop-color="rgb(223,196,147)"/><stop offset="0.58" stop-color="rgb(223,196,146)"/><stop offset="0.585" stop-color="rgb(223,195,145)"/><stop offset="0.59" stop-color="rgb(222,194,144)"/><stop offset="0.595" stop-color="rgb(222,193,143)"/><stop offset="0.6" stop-color="rgb(221,193,142)"/><stop offset="0.605" stop-color="rgb(221,192,141)"/><stop offset="0.61" stop-color="rgb(220,191,140)"/><stop offset="0.615" stop-color="rgb(220,190,139)"/><stop offset="0.62" stop-color="rgb(219,189,138)"/><stop offset="0.625" stop-color="rgb(219,188,136)"/><stop offset="0.63" stop-color="rgb(218,188,135)"/><stop offset="0.635" stop-color="rgb(217,187,134)"/><stop offset="0.64" stop-color="rgb(217,186,132)"/><stop offset="0.645" stop-color="rgb(216,184,131)"/><stop offset="0.65" stop-color="rgb(215,183,129)"/><stop offset="0.655" stop-color="rgb(215,182,128)"/><stop offset="0.66" stop-color="rgb(214,181,127)"/><stop offset="0.665" stop-color="rgb(213,180,125)"/><stop offset="0.67" stop-color="rgb(213,179,124)"/><stop offset="0.675" stop-color="rgb(212,178,122)"/><stop offset="0.68" stop-color="rgb(211,177,121)"/><stop offset="0.685" stop-color="rgb(210,176,119)"/><stop offset="0.69" stop-color="rgb(210,175,118)"/><stop offset="0.695" stop-color="rgb(209,174,116)"/><stop offset="0.7" stop-color="rgb(208,173,115)"/><stop offset="0.705" stop-color="rgb(207,172,114)"/><stop offset="0.71" stop-color="rgb(207,171,112)"/><stop offset="0.715" stop-color="rgb(206,170,111)"/><stop offset="0.72" stop-color="rgb(205,169,110)"/><stop offset="0.725" stop-color="rgb(205,168,109)"/><stop offset="0.73" stop-color="rgb(204,167,108)"/><stop offset="0.735" stop-color="rgb(203,166,107)"/><stop offset="0.74" stop-color="rgb(203,166,106)"/><stop offset="0.745" stop-color="rgb(202,165,106)"/><stop offset="0.75" stop-color="rgb(202,164,105)"/><stop offset="0.755" stop-color="rgb(201,164,104)"/><stop offset="0.76" stop-color="rgb(201,163,104)"/><stop offset="0.765" stop-color="rgb(200,163,103)"/><stop offset="0.77" stop-color="rgb(200,162,102)"/><stop offset="0.775" stop-color="rgb(199,161,102)"/><stop offset="0.78" stop-color="rgb(199,161,101)"/><stop offset="0.785" stop-color="rgb(198,160,101)"/><stop offset="0.79" stop-color="rgb(197,160,100)"/><stop offset="0.795" stop-color="rgb(197,159,99)"/><stop offset="0.8" stop-color="rgb(196,159,99)"/><stop offset="0.805" stop-color="rgb(196,158,98)"/><stop offset="0.81" stop-color="rgb(195,158,98)"/><stop offset="0.815" stop-color="rgb(195,157,97)"/><stop offset="0.82" stop-color="rgb(194,157,97)"/><stop offset="0.825" stop-color="rgb(194,156,96)"/><stop offset="0.83" stop-color="rgb(193,155,96)"/><stop offset="0.835" stop-color="rgb(192,155,95)"/><stop offset="0.84" stop-color="rgb(192,154,95)"/><stop offset="0.845" stop-color="rgb(191,154,94)"/><stop offset="0.85" stop-color="rgb(191,153,94)"/><stop offset="0.855" stop-color="rgb(190,153,94)"/><stop offset="0.86" stop-color="rgb(190,152,93)"/><stop offset="0.865" stop-color="rgb(189,152,93)"/><stop offset="0.87" stop-color="rgb(188,151,92)"/><stop offset="0.875" stop-color="rgb(188,151,92)"/><stop offset="0.88" stop-color="rgb(187,150,91)"/><stop offset="0.885" stop-color="rgb(187,150,91)"/><stop offset="0.89" stop-color="rgb(186,149,90)"/><stop offset="0.895" stop-color="rgb(186,149,90)"/><stop offset="0.9" stop-color="rgb(185,148,89)"/><stop offset="0.905" stop-color="rgb(184,147,88)"/><stop offset="0.91" stop-color="rgb(183,146,87)"/><stop offset="0.915" stop-color="rgb(182,145,86)"/><stop offset="0.92" stop-color="rgb(181,144,85)"/><stop offset="0.925" stop-color="rgb(180,143,84)"/><stop offset="0.93" stop-color="rgb(178,141,83)"/><stop offset="0.935" stop-color="rgb(177,140,82)"/><stop offset="0.94" stop-color="rgb(176,139,81)"/><stop offset="0.945" stop-color="rgb(175,138,80)"/><stop offset="0.95" stop-color="rgb(174,137,79)"/><stop offset="0.955" stop-color="rgb(173,136,78)"/><stop offset="0.96" stop-color="rgb(172,135,77)"/><stop offset="0.965" stop-color="rgb(171,134,76)"/><stop offset="0.97" stop-color="rgb(170,133,75)"/><stop offset="0.975" stop-color="rgb(169,132,74)"/><stop offset="0.98" stop-color="rgb(168,131,73)"/><stop offset="0.985" stop-color="rgb(167,130,73)"/><stop offset="0.99" stop-color="rgb(166,129,72)"/><stop offset="0.995" stop-color="rgb(166,129,71)"/><stop offset="1" stop-color="rgb(165,128,71)"/></linearGradient>
  <radialGradient id="ambient" cx=".85" cy=".10" r="1"><stop stop-color="#ffffff" stop-opacity=".14"/><stop offset="1" stop-color="#ffffff" stop-opacity="0"/></radialGradient>
  <linearGradient id="side" gradientUnits="userSpaceOnUse" x1="0" y1="210" x2="160" y2="370"><stop stop-color="#dfc69f"/><stop offset=".6" stop-color="#c7ab7a"/><stop offset="1" stop-color="#ae8f56"/></linearGradient>
  <g id="shapes"><path d="M239.6780 224.2052Q238.4589 224.3465 237.2657 224.6341Q236.0725 224.9216 234.9112 225.3124Q233.7500 225.7044 232.7177 226.3594Q231.6843 227.0156 230.8376 227.9004Q229.9921 228.7852 229.3765 229.8444Q228.7608 230.9037 228.3996 232.0723Q228.0395 233.2410 227.8920 234.4588Q227.7446 235.6778 227.6315 236.8993Q227.5172 238.1220 227.4791 239.3484Q227.4410 240.5748 227.4386 241.8024Q227.4361 243.0300 227.4361 244.2576Q227.4361 245.4853 227.4361 246.7129Q227.4361 247.9405 227.4361 249.1681Q227.4361 250.3958 227.4361 251.6234Q227.4361 252.8510 227.4361 254.0786Q227.4361 255.3063 227.4361 256.5326Q227.4361 257.7603 227.4361 258.9879Q227.4361 260.2155 227.4361 261.4431Q227.4361 262.6708 227.4361 263.8984Q227.4361 265.1260 227.4361 266.3536Q227.4361 267.5813 227.4361 268.8089Q227.4361 270.0365 227.4361 271.2641Q227.4361 272.4905 227.4361 273.7182Q227.4361 274.9458 227.4361 276.1734Q227.4361 277.4010 227.4361 278.6287Q227.4361 279.8563 227.4361 281.0839Q227.4361 282.3115 227.4361 283.5391Q227.4361 284.7668 227.4361 285.9944Q227.4361 287.2220 227.4361 288.4496Q227.4361 289.6760 227.4361 290.9037Q227.4361 292.1313 227.4361 293.3589Q227.4361 294.5865 227.4361 295.8142Q227.4361 297.0418 227.4361 298.2694Q227.4361 299.4970 227.4361 300.7247Q227.4361 301.9523 227.4361 303.1799Q227.4361 304.4075 227.4361 305.6351Q227.4361 306.8615 227.4361 308.0892Q227.4361 309.3168 227.4361 310.5444Q227.4361 311.7720 227.4361 312.9997Q227.4361 314.2273 227.4361 315.4549Q227.4361 316.6825 227.4361 317.9102Q227.4361 319.1378 227.4361 320.3654Q227.4361 321.5930 227.4361 322.8207Q227.4361 324.0471 227.4361 325.2747Q227.4361 326.5023 227.4361 327.7299Q227.4361 328.9575 227.4361 330.1852Q227.4361 331.4128 227.4361 332.6404Q227.4361 333.8680 227.4496 335.0957Q227.4632 336.3233 227.5590 337.5460Q227.6561 338.7687 227.8085 339.9877Q227.9609 341.2055 228.2005 342.4061Q228.4413 343.6079 228.9538 344.7200Q229.4650 345.8334 230.2121 346.8029Q230.9593 347.7713 231.9178 348.5319Q232.8775 349.2926 233.9994 349.7792Q235.1226 350.2671 236.3084 350.5817Q237.4955 350.8963 238.7035 351.1052Q239.9127 351.3128 241.1378 351.3804Q242.3630 351.4468 243.5906 351.4591Q244.8183 351.4701 246.0459 351.4714Q247.2735 351.4726 248.5011 351.4726Q249.7288 351.4726 250.9564 351.4677Q252.1840 351.4628 253.4104 351.4197Q254.6368 351.3780 255.8534 351.2256Q257.0711 351.0744 258.2644 350.7893Q259.4588 350.5043 260.6152 350.1000Q261.7715 349.6957 262.7890 349.0161Q263.8065 348.3366 264.6360 347.4346Q265.4654 346.5326 266.0528 345.4586Q266.6415 344.3846 266.9560 343.2012Q267.2694 342.0178 267.4304 340.8012Q267.5926 339.5847 267.7081 338.3632Q267.8236 337.1417 267.8445 335.9141Q267.8666 334.6865 267.8666 333.4588Q267.8678 332.2324 267.8678 331.0048Q267.8678 329.7772 267.8678 328.5496Q267.8678 327.3219 267.8678 326.0943Q267.8678 324.8667 267.8678 323.6391Q267.8678 322.4114 267.8678 321.1838Q267.8678 319.9562 267.8678 318.7286Q267.8678 317.5010 267.8678 316.2733Q267.8678 315.0469 267.8678 313.8193Q267.8678 312.5917 267.8678 311.3641Q267.8678 310.1364 267.8678 308.9088Q267.8678 307.6812 267.8678 306.4536Q267.8678 305.2259 267.8678 303.9983Q267.8678 302.7707 267.8678 301.5431Q267.8678 300.3154 267.8678 299.0878Q267.8678 297.8614 267.8678 296.6338Q267.8678 295.4062 267.8678 294.1786Q267.8678 292.9509 267.8678 291.7233Q267.8678 290.4957 267.8678 289.2681Q267.8678 288.0404 267.8678 286.8128Q267.8678 285.5852 267.8678 284.3576Q267.8678 283.1299 267.8678 281.9023Q267.8678 280.6759 267.8838 279.4483Q267.8998 278.2207 268.5572 277.5534Q269.2147 276.8849 270.1842 277.6321Q271.1538 278.3792 272.0754 279.1902Q272.9958 280.0025 273.9199 280.8099Q274.8440 281.6172 275.7534 282.4430Q276.6627 283.2676 277.5574 284.1081Q278.4520 284.9474 279.3404 285.7953Q280.2289 286.6420 281.1161 287.4899Q282.0046 288.3378 282.8906 289.1882Q283.7766 290.0373 284.6638 290.8852Q285.5523 291.7319 286.4506 292.5688Q287.3501 293.4044 288.2619 294.2253Q289.1749 295.0461 290.0978 295.8559Q291.0207 296.6645 291.9362 297.4829Q292.8517 298.3001 293.7524 299.1345Q294.6532 299.9677 295.5441 300.8131Q296.4362 301.6574 297.3234 302.5040Q298.2119 303.3519 299.0979 304.2011Q299.9851 305.0502 300.8711 305.8994Q301.7571 306.7485 302.6505 307.5903Q303.5439 308.4320 304.4483 309.2615Q305.3540 310.0910 306.2732 310.9045Q307.1936 311.7167 308.1177 312.5253Q309.0406 313.3339 309.9462 314.1634Q310.8519 314.9916 311.7453 315.8334Q312.6399 316.6739 313.5296 317.5194Q314.4205 318.3636 315.3065 319.2140Q316.1925 320.0631 317.0785 320.9135Q317.9633 321.7638 318.8529 322.6093Q319.7439 323.4547 320.6434 324.2891Q321.5429 325.1248 322.4559 325.9456Q323.3690 326.7653 324.2931 327.5739Q325.2159 328.3824 326.1290 329.2033Q327.0420 330.0242 327.9415 330.8598Q328.8411 331.6954 329.7344 332.5360Q330.6278 333.3777 331.5150 334.2269Q332.4011 335.0760 333.2858 335.9264Q334.1706 336.7767 335.0615 337.6222Q335.9512 338.4676 336.8569 339.2959Q337.7625 340.1254 338.6768 340.9438Q339.5911 341.7634 340.5152 342.5720Q341.4393 343.3794 342.3634 344.1867Q343.2887 344.9941 344.2238 345.7891Q345.1590 346.5854 346.1507 347.3055Q347.1424 348.0269 348.2225 348.6094Q349.3015 349.1918 350.4431 349.6391Q351.5847 350.0864 352.7840 350.3457Q353.9834 350.6050 355.1864 350.8483Q356.3895 351.0916 357.6073 351.2330Q358.8263 351.3743 360.0539 351.4111Q361.2803 351.4480 362.5079 351.4652Q363.7356 351.4812 364.9632 351.4849Q366.1896 351.4873 367.4172 351.4873Q368.6448 351.4873 369.8725 351.4800Q371.1001 351.4738 372.3265 351.4259Q373.5529 351.3780 374.7670 351.2072Q375.9811 351.0363 377.1718 350.7377Q378.3626 350.4379 379.5030 349.9918Q380.6434 349.5457 381.6608 348.8637Q382.6783 348.1817 383.4660 347.2466Q384.2537 346.3102 384.8067 345.2165Q385.3597 344.1228 385.7492 342.9591Q386.1388 341.7966 386.3022 340.5825Q386.4657 339.3672 386.4964 338.1408Q386.5271 336.9131 386.5296 335.6867Q386.5332 334.4591 386.5332 333.2315Q386.5332 332.0039 386.5332 330.7762Q386.5332 329.5486 386.5332 328.3210Q386.5332 327.0934 386.5332 325.8658Q386.5332 324.6381 386.5332 323.4105Q386.5332 322.1829 386.5332 320.9553Q386.5332 319.7289 386.5332 318.5012Q386.5332 317.2736 386.5332 316.0460Q386.5332 314.8184 386.5332 313.5907Q386.5332 312.3631 386.5332 311.1355Q386.5332 309.9079 386.5332 308.6802Q386.5332 307.4526 386.5332 306.2250Q386.5332 304.9974 386.5332 303.7698Q386.5332 302.5434 386.5332 301.3157Q386.5332 300.0881 386.5332 298.8605Q386.5332 297.6329 386.5332 296.4052Q386.5332 295.1776 386.5332 293.9500Q386.5332 292.7224 386.5332 291.4947Q386.5332 290.2671 386.5332 289.0395Q386.5332 287.8119 386.5332 286.5842Q386.5332 285.3578 386.5332 284.1302Q386.5332 282.9026 386.5332 281.6750Q386.5332 280.4474 386.5332 279.2197Q386.5332 277.9921 386.5332 276.7645Q386.5332 275.5369 386.5332 274.3092Q386.5332 273.0816 386.5332 271.8540Q386.5332 270.6264 386.5332 269.3987Q386.5332 268.1723 386.5332 266.9447Q386.5332 265.7171 386.5332 264.4895Q386.5332 263.2618 386.5332 262.0342Q386.5332 260.8066 386.5332 259.5790Q386.5332 258.3514 386.5332 257.1237Q386.5332 255.8961 386.5332 254.6685Q386.5332 253.4409 386.5332 252.2132Q386.5332 250.9868 386.5332 249.7592Q386.5332 248.5316 386.5332 247.3040Q386.5332 246.0763 386.5332 244.8487Q386.5332 243.6211 386.5332 242.3935Q386.5332 241.1658 386.5308 239.9382Q386.5296 238.7106 386.5124 237.4842Q386.4939 236.2566 386.3526 235.0388Q386.2125 233.8222 385.8303 232.6560Q385.4482 231.4911 384.9001 230.3949Q384.3520 229.2988 383.5766 228.3526Q382.8000 227.4064 381.7960 226.7059Q380.7908 226.0055 379.6578 225.5422Q378.5248 225.0789 377.3341 224.7816Q376.1433 224.4842 374.9316 224.2962Q373.7200 224.1081 372.4936 224.0590Q371.2672 224.0098 370.0396 224.0049Q368.8120 224.0000 367.5856 224.0000Q366.3579 224.0000 365.1303 224.0000Q363.9027 224.0000 362.6751 224.0037Q361.4474 224.0074 360.2211 224.0528Q358.9947 224.0995 357.7818 224.2814Q356.5689 224.4620 355.3769 224.7545Q354.1837 225.0458 353.0470 225.4967Q351.9103 225.9477 350.9113 226.6568Q349.9134 227.3658 349.1196 228.2973Q348.3258 229.2288 347.7679 230.3188Q347.2112 231.4088 346.8388 232.5774Q346.4653 233.7473 346.2674 234.9565Q346.0696 236.1656 346.0290 237.3933Q345.9885 238.6197 345.9836 239.8473Q345.9786 241.0749 345.9786 242.3025Q345.9786 243.5302 345.9786 244.7566Q345.9786 245.9842 345.9786 247.2118Q345.9786 248.4394 345.9786 249.6670Q345.9786 250.8947 345.9786 252.1223Q345.9786 253.3499 345.9786 254.5775Q345.9786 255.8052 345.9786 257.0328Q345.9786 258.2604 345.9786 259.4880Q345.9786 260.7157 345.9786 261.9421Q345.9786 263.1697 345.9786 264.3973Q345.9786 265.6249 345.9786 266.8526Q345.9786 268.0802 345.9786 269.3078Q345.9786 270.5354 345.9786 271.7631Q345.9786 272.9907 345.9786 274.2183Q345.9786 275.4459 345.9786 276.6735Q345.9786 277.8999 345.9786 279.1276Q345.9786 280.3552 345.9786 281.5828Q345.9786 282.8104 345.9786 284.0381Q345.9786 285.2657 345.9786 286.4933Q345.9786 287.7209 345.9786 288.9486Q345.9786 290.1762 345.9774 291.4038Q345.9762 292.6314 345.8914 293.8529Q345.8078 295.0756 344.8997 295.3410Q343.9928 295.6065 343.0540 294.8163Q342.1151 294.0274 341.2132 293.1942Q340.3124 292.3611 339.4203 291.5181Q338.5281 290.6751 337.6384 289.8284Q336.7500 288.9817 335.8603 288.1363Q334.9706 287.2896 334.0747 286.4515Q333.1777 285.6135 332.2646 284.7926Q331.3504 283.9729 330.4226 283.1693Q329.4948 282.3656 328.5732 281.5558Q327.6503 280.7460 326.7446 279.9165Q325.8402 279.0882 324.9456 278.2465Q324.0522 277.4059 323.1638 276.5580Q322.2753 275.7114 321.3868 274.8647Q320.4972 274.0180 319.6025 273.1775Q318.7079 272.3369 317.7986 271.5124Q316.8892 270.6878 315.9676 269.8780Q315.0447 269.0682 314.1182 268.2620Q313.1929 267.4559 312.2823 266.6338Q311.3705 265.8105 310.4746 264.9712Q309.5788 264.1319 308.6891 263.2877Q307.7982 262.4422 306.9097 261.5955Q306.0225 260.7476 305.1304 259.9046Q304.2382 259.0616 303.3350 258.2297Q302.4318 257.3978 301.5126 256.5855Q300.5922 255.7732 299.6632 254.9695Q298.7354 254.1659 297.8199 253.3487Q296.9044 252.5315 296.0037 251.6959Q295.1041 250.8615 294.2132 250.0173Q293.3223 249.1730 292.4338 248.3251Q291.5466 247.4772 290.6557 246.6330Q289.7648 245.7876 288.8665 244.9519Q287.9682 244.1151 287.0552 243.2954Q286.1421 242.4746 285.2131 241.6721Q284.2841 240.8697 283.3625 240.0586Q282.4408 239.2476 281.5376 238.4169Q280.6332 237.5874 279.7410 236.7444Q278.8489 235.9014 277.9592 235.0548Q277.0695 234.2093 276.1798 233.3626Q275.2901 232.5172 274.3857 231.6877Q273.4800 230.8582 272.5252 230.0890Q271.5692 229.3185 270.5787 228.5935Q269.5882 227.8684 268.5486 227.2184Q267.5090 226.5683 266.3945 226.0546Q265.2811 225.5410 264.0928 225.2338Q262.9057 224.9278 261.7076 224.6587Q260.5107 224.3908 259.2954 224.2298Q258.0788 224.0676 256.8524 224.0356Q255.6260 224.0037 254.3984 224.0012Q253.1708 224.0000 251.9431 224.0000Q250.7155 224.0000 249.4879 224.0000Q248.2603 224.0000 247.0326 224.0000Q245.8050 224.0000 244.5774 224.0025Q243.3498 224.0037 242.1234 224.0344Q240.8958 224.0639 239.6780 224.2052ZM452.2511 253.7468Q451.0370 253.9164 449.8302 254.1302Q448.6223 254.3441 447.4020 254.4497Q446.1805 254.5554 444.9603 254.6722Q443.7400 254.7877 442.5468 255.0642Q441.3524 255.3394 440.1493 255.5741Q438.9475 255.8076 437.7506 256.0681Q436.5537 256.3287 435.3715 256.6543Q434.1894 256.9812 433.0121 257.3179Q431.8337 257.6558 430.6675 258.0355Q429.5025 258.4165 428.3523 258.8404Q427.2021 259.2644 426.0605 259.7129Q424.9202 260.1602 423.7982 260.6555Q422.6763 261.1494 421.5789 261.6963Q420.4815 262.2419 419.3989 262.8182Q418.3175 263.3958 417.2693 264.0311Q416.2211 264.6664 415.1913 265.3312Q414.1603 265.9960 413.1797 266.7309Q412.1978 267.4658 411.2381 268.2276Q410.2771 268.9895 409.3322 269.7699Q408.3859 270.5502 407.5061 271.4030Q406.6250 272.2546 405.8225 273.1811Q405.0201 274.1077 404.2594 275.0699Q403.5000 276.0321 402.7553 277.0066Q402.0119 277.9798 401.3532 279.0145Q400.6958 280.0492 400.0850 281.1122Q399.4755 282.1751 398.9336 283.2749Q398.3917 284.3748 397.9149 285.5041Q397.4369 286.6322 397.0117 287.7824Q396.5853 288.9314 396.2473 290.1098Q395.9082 291.2883 395.5960 292.4729Q395.2827 293.6575 395.1377 294.8741Q394.9914 296.0919 394.7997 297.3023Q394.6080 298.5127 394.4213 299.7244Q394.2357 300.9360 394.1693 302.1600Q394.1030 303.3827 394.1153 304.6091Q394.1276 305.8342 394.2382 307.0557Q394.3475 308.2760 394.5589 309.4827Q394.7702 310.6906 394.9263 311.9060Q395.0824 313.1225 395.2716 314.3317Q395.4609 315.5422 395.8025 316.7194Q396.1429 317.8979 396.4870 319.0739Q396.8310 320.2499 397.2820 321.3903Q397.7330 322.5294 398.2381 323.6464Q398.7431 324.7647 399.3109 325.8498Q399.8798 326.9361 400.5127 327.9855Q401.1468 329.0350 401.8239 330.0574Q402.5022 331.0785 403.2751 332.0297Q404.0469 332.9808 404.8788 333.8816Q405.7120 334.7811 406.5746 335.6511Q407.4385 336.5224 408.3343 337.3592Q409.2289 338.1973 410.1690 338.9838Q411.1091 339.7702 412.1192 340.4658Q413.1281 341.1613 414.1493 341.8408Q415.1704 342.5192 416.2285 343.1373Q417.2865 343.7566 418.3716 344.3280Q419.4554 344.8995 420.5590 345.4352Q421.6612 345.9698 422.7856 346.4613Q423.9088 346.9516 425.0480 347.4039Q426.1871 347.8573 427.3410 348.2702Q428.4961 348.6831 429.6672 349.0456Q430.8383 349.4069 432.0106 349.7669Q433.1830 350.1258 434.3774 350.3998Q435.5718 350.6738 436.7565 350.9909Q437.9398 351.3079 439.1515 351.4947Q440.3619 351.6815 441.5662 351.9101Q442.7692 352.1399 443.9698 352.3881Q445.1692 352.6375 446.3907 352.7322Q447.6121 352.8268 448.8373 352.8784Q450.0625 352.9312 451.2827 353.0492Q452.5030 353.1684 453.7146 353.3564Q454.9263 353.5444 456.1453 353.6710Q457.3643 353.7976 458.5895 353.8430Q459.8147 353.8885 461.0398 353.9143Q462.2662 353.9389 463.4914 353.9512Q464.7178 353.9622 465.9442 353.9549Q467.1693 353.9475 468.3957 353.9229Q469.6221 353.8996 470.8461 353.8455Q472.0712 353.7914 473.2903 353.6624Q474.5093 353.5346 475.7234 353.3638Q476.9375 353.1942 478.1565 353.0640Q479.3755 352.9349 480.6007 352.8747Q481.8246 352.8157 483.0437 352.6965Q484.2639 352.5761 485.4596 352.3058Q486.6553 352.0354 487.8632 351.8314Q489.0712 351.6274 490.2779 351.4185Q491.4859 351.2096 492.6705 350.8963Q493.8551 350.5817 495.0483 350.3015Q496.2428 350.0213 497.4139 349.6613Q498.5862 349.3012 499.7536 348.9289Q500.9222 348.5577 502.0761 348.1449Q503.2300 347.7307 504.3679 347.2736Q505.5059 346.8152 506.6229 346.3102Q507.7399 345.8051 508.8422 345.2706Q509.9457 344.7360 511.0234 344.1499Q512.0999 343.5649 513.1481 342.9284Q514.1963 342.2931 515.2040 341.5938Q516.2104 340.8959 517.2058 340.1782Q518.1999 339.4618 519.1252 338.6593Q520.0518 337.8569 520.9095 336.9807Q521.7685 336.1058 522.5328 335.1497Q523.2984 334.1925 523.9620 333.1615Q524.6244 332.1304 525.1700 331.0331Q525.7156 329.9369 526.0793 328.7695Q526.4431 327.6021 526.5008 326.3794Q526.5598 325.1579 526.2833 323.9721Q526.0080 322.7862 525.3076 321.7884Q524.6071 320.7906 523.6474 320.0336Q522.6889 319.2779 521.5412 318.8625Q520.3922 318.4472 519.1854 318.2370Q517.9775 318.0269 516.7585 317.8942Q515.5407 317.7615 514.3143 317.7369Q513.0891 317.7111 511.8627 317.7111Q510.6375 317.7111 509.4112 317.7111Q508.1848 317.7111 506.9584 317.7111Q505.7332 317.7111 504.5068 317.7234Q503.2804 317.7344 502.0577 317.8155Q500.8350 317.8966 499.6172 318.0404Q498.3994 318.1842 497.1816 318.3255Q495.9638 318.4668 494.7706 318.7359Q493.5762 319.0038 492.4260 319.4290Q491.2757 319.8530 490.1575 320.3556Q489.0392 320.8569 487.9394 321.3989Q486.8396 321.9408 485.7422 322.4864Q484.6436 323.0308 483.5291 323.5420Q482.4145 324.0520 481.2753 324.5042Q480.1362 324.9576 478.9737 325.3472Q477.8124 325.7367 476.6315 326.0685Q475.4518 326.3991 474.2598 326.6817Q473.0691 326.9643 471.8476 327.0799Q470.6273 327.1941 469.4108 327.3428Q468.1942 327.4903 466.9776 327.6451Q465.7611 327.8000 464.5371 327.8540Q463.3132 327.9081 462.0893 327.8442Q460.8653 327.7803 459.6512 327.6132Q458.4359 327.4461 457.2193 327.3023Q456.0015 327.1585 454.7862 327.0024Q453.5709 326.8464 452.3924 326.5097Q451.2151 326.1730 450.0502 325.7908Q448.8852 325.4086 447.7658 324.9109Q446.6450 324.4132 445.5845 323.8001Q444.5228 323.1881 443.5188 322.4840Q442.5161 321.7810 441.6203 320.9454Q440.7257 320.1110 439.9859 319.1341Q439.2473 318.1572 438.6169 317.1065Q437.9853 316.0558 437.6154 314.9019Q437.2468 313.7493 438.1414 313.0955Q439.0372 312.4418 440.2611 312.4074Q441.4863 312.3729 442.7127 312.3729Q443.9379 312.3729 445.1643 312.3729Q446.3907 312.3729 447.6171 312.3729Q448.8422 312.3729 450.0686 312.3729Q451.2950 312.3729 452.5214 312.3729Q453.7466 312.3729 454.9730 312.3729Q456.1994 312.3729 457.4258 312.3729Q458.6509 312.3729 459.8773 312.3729Q461.1037 312.3729 462.3289 312.3729Q463.5553 312.3729 464.7817 312.3729Q466.0081 312.3729 467.2332 312.3729Q468.4596 312.3729 469.6860 312.3729Q470.9124 312.3729 472.1376 312.3729Q473.3640 312.3729 474.5904 312.3729Q475.8168 312.3729 477.0419 312.3729Q478.2683 312.3729 479.4947 312.3729Q480.7211 312.3729 481.9463 312.3729Q483.1727 312.3729 484.3991 312.3729Q485.6243 312.3729 486.8506 312.3729Q488.0770 312.3729 489.3034 312.3729Q490.5286 312.3729 491.7550 312.3729Q492.9814 312.3729 494.2078 312.3729Q495.4330 312.3729 496.6593 312.3729Q497.8857 312.3729 499.1121 312.3729Q500.3373 312.3729 501.5637 312.3729Q502.7901 312.3729 504.0153 312.3729Q505.2417 312.3729 506.4681 312.3729Q507.6944 312.3729 508.9196 312.3729Q510.1460 312.3729 511.3724 312.3729Q512.5988 312.3729 513.8240 312.3729Q515.0504 312.3729 516.2768 312.3717Q517.5031 312.3705 518.7283 312.3398Q519.9535 312.3090 521.1492 312.0620Q522.3448 311.8151 523.4496 311.2854Q524.5531 310.7558 525.5251 310.0148Q526.4971 309.2726 527.2774 308.3313Q528.0578 307.3900 528.5997 306.2926Q529.1416 305.1952 529.5226 304.0315Q529.9047 302.8665 530.0510 301.6512Q530.1972 300.4359 530.1775 299.2107Q530.1579 297.9855 530.0006 296.7702Q529.8433 295.5561 529.5729 294.3604Q529.3014 293.1648 529.0667 291.9617Q528.8319 290.7587 528.4608 289.5900Q528.0897 288.4226 527.6584 287.2749Q527.2271 286.1283 526.7232 285.0101Q526.2194 283.8931 525.6382 282.8141Q525.0569 281.7352 524.4216 280.6858Q523.7863 279.6375 523.0772 278.6373Q522.3682 277.6370 521.6395 276.6514Q520.9120 275.6647 520.1095 274.7381Q519.3071 273.8115 518.4494 272.9354Q517.5916 272.0604 516.6970 271.2211Q515.8036 270.3818 514.8501 269.6126Q513.8952 268.8433 512.9097 268.1146Q511.9254 267.3846 510.9300 266.6670Q509.9359 265.9506 508.9024 265.2919Q507.8677 264.6345 506.8134 264.0078Q505.7602 263.3823 504.6776 262.8047Q503.5962 262.2284 502.4939 261.6901Q501.3929 261.1519 500.2709 260.6591Q499.1478 260.1651 498.0074 259.7166Q496.8658 259.2681 495.7180 258.8392Q494.5691 258.4116 493.4053 258.0245Q492.2416 257.6386 491.0644 257.2970Q489.8871 256.9566 488.7087 256.6224Q487.5290 256.2869 486.3321 256.0288Q485.1339 255.7708 483.9346 255.5176Q482.7364 255.2632 481.5408 254.9966Q480.3451 254.7312 479.1236 254.6242Q477.9021 254.5186 476.6856 254.3772Q475.4678 254.2359 474.2623 254.0123Q473.0568 253.7898 471.8390 253.6498Q470.6212 253.5097 469.3972 253.4568Q468.1721 253.4028 466.9457 253.3843Q465.7205 253.3659 464.4941 253.3585Q463.2677 253.3524 462.0426 253.3585Q460.8162 253.3647 459.5898 253.3794Q458.3646 253.3942 457.1382 253.4187Q455.9130 253.4445 454.6879 253.5109Q453.4639 253.5760 452.2511 253.7468ZM596.0293 253.7075Q594.8140 253.8599 593.6085 254.0786Q592.4030 254.2974 591.1839 254.4166Q589.9649 254.5345 588.7447 254.6328Q587.5244 254.7299 586.3263 254.9818Q585.1281 255.2338 583.9300 255.4832Q582.7307 255.7327 581.5276 255.9563Q580.3233 256.1800 579.1449 256.5118Q577.9664 256.8448 576.7793 257.1495Q575.5935 257.4543 574.4273 257.8279Q573.2611 258.2027 572.1011 258.5971Q570.9423 258.9916 569.7982 259.4315Q568.6554 259.8714 567.5236 260.3409Q566.3918 260.8103 565.2760 261.3153Q564.1602 261.8216 563.0690 262.3771Q561.9778 262.9337 560.9099 263.5334Q559.8420 264.1331 558.7938 264.7684Q557.7469 265.4037 556.7269 266.0821Q555.7070 266.7604 554.7374 267.5088Q553.7678 268.2571 552.7946 269.0006Q551.8213 269.7440 550.8935 270.5440Q549.9645 271.3428 549.0957 272.2054Q548.2257 273.0681 547.4159 273.9860Q546.6061 274.9052 545.8651 275.8809Q545.1253 276.8579 544.3929 277.8397Q543.6605 278.8216 543.0043 279.8550Q542.3481 280.8885 541.7558 281.9613Q541.1647 283.0341 540.6240 284.1339Q540.0833 285.2325 539.6065 286.3606Q539.1310 287.4887 538.7242 288.6450Q538.3175 289.8002 537.9943 290.9811Q537.6723 292.1620 537.4007 293.3565Q537.1292 294.5509 536.8674 295.7453Q536.6057 296.9410 536.5209 298.1625Q536.4349 299.3840 536.4177 300.6091Q536.3992 301.8343 536.3980 303.0595Q536.3968 304.2846 536.4041 305.5098Q536.4127 306.7350 536.4557 307.9589Q536.5000 309.1828 536.6794 310.3933Q536.8600 311.6025 537.1587 312.7908Q537.4560 313.9791 537.7215 315.1747Q537.9869 316.3704 538.3764 317.5317Q538.7660 318.6929 539.1998 319.8382Q539.6348 320.9823 540.1435 322.0969Q540.6523 323.2114 541.2200 324.2965Q541.7877 325.3816 542.4231 326.4286Q543.0596 327.4756 543.7502 328.4869Q544.4408 329.4982 545.2064 330.4543Q545.9720 331.4103 546.7523 332.3541Q547.5326 333.2991 548.3633 334.1998Q549.1928 335.0994 550.1046 335.9178Q551.0164 336.7362 551.9626 337.5128Q552.9101 338.2907 553.8637 339.0587Q554.8185 339.8267 555.8298 340.5161Q556.8424 341.2068 557.8734 341.8666Q558.9057 342.5265 559.9662 343.1397Q561.0267 343.7529 562.1117 344.3219Q563.1968 344.8909 564.2991 345.4254Q565.4014 345.9587 566.5233 346.4503Q567.6453 346.9418 568.7819 347.3989Q569.9186 347.8561 571.0701 348.2727Q572.2215 348.6905 573.3914 349.0567Q574.5600 349.4241 575.7299 349.7866Q576.8985 350.1503 578.0893 350.4391Q579.2800 350.7279 580.4622 351.0462Q581.6456 351.3644 582.8548 351.5537Q584.0652 351.7429 585.2633 351.9973Q586.4602 352.2517 587.6620 352.4815Q588.8651 352.7113 590.0866 352.7936Q591.3080 352.8759 592.5295 352.9706Q593.7510 353.0652 594.9614 353.2471Q596.1731 353.4302 597.3872 353.5899Q598.6013 353.7497 599.8240 353.8271Q601.0467 353.9033 602.2719 353.9340Q603.4958 353.9635 604.7210 353.9745Q605.9461 353.9856 607.1713 353.9819Q608.3965 353.9770 609.6216 353.9573Q610.8468 353.9377 612.0695 353.8836Q613.2935 353.8295 614.5125 353.7066Q615.7303 353.5838 616.9407 353.3945Q618.1511 353.2053 619.3689 353.0713Q620.5867 352.9386 621.8094 352.8723Q623.0321 352.8071 624.2462 352.6511Q625.4603 352.4962 626.6523 352.2124Q627.8443 351.9285 629.0535 351.7405Q630.2639 351.5525 631.4571 351.2784Q632.6503 351.0056 633.8362 350.7009Q635.0220 350.3961 636.2030 350.0729Q637.3839 349.7485 638.5550 349.3909Q639.7273 349.0345 640.8849 348.6327Q642.0412 348.2321 643.1878 347.7995Q644.3343 347.3682 645.4599 346.8841Q646.5843 346.3999 647.6976 345.8887Q648.8110 345.3775 649.9034 344.8233Q650.9959 344.2691 652.0699 343.6792Q653.1427 343.0881 654.1835 342.4417Q655.2244 341.7954 656.2492 341.1244Q657.2741 340.4535 658.2498 339.7137Q659.2255 338.9739 660.1754 338.2010Q661.1265 337.4280 662.0605 336.6354Q662.9944 335.8440 663.8681 334.9851Q664.7418 334.1273 665.5369 333.1959Q666.3320 332.2644 667.0988 331.3083Q667.8656 330.3535 668.6090 329.3803Q669.3525 328.4070 670.0038 327.3699Q670.6538 326.3315 671.2498 325.2612Q671.8471 324.1921 672.3828 323.0910Q672.9186 321.9887 673.3942 320.8606Q673.8685 319.7313 674.2753 318.5750Q674.6808 317.4198 675.0028 316.2389Q675.3235 315.0580 675.6123 313.8672Q675.8998 312.6765 676.1456 311.4783Q676.3901 310.2790 676.4626 309.0575Q676.5339 307.8348 676.5462 306.6096Q676.5597 305.3845 676.5609 304.1593Q676.5622 302.9341 676.5560 301.7090Q676.5511 300.4838 676.5167 299.2599Q676.4835 298.0359 676.3250 296.8218Q676.1677 295.6089 675.8642 294.4219Q675.5619 293.2348 675.2854 292.0416Q675.0101 290.8484 674.6255 289.6859Q674.2396 288.5234 673.7960 287.3818Q673.3512 286.2402 672.8424 285.1256Q672.3337 284.0123 671.7635 282.9272Q671.1933 281.8433 670.5740 280.7865Q669.9546 279.7297 669.2419 278.7343Q668.5292 277.7390 667.7931 276.7583Q667.0582 275.7789 666.2816 274.8327Q665.5037 273.8865 664.6558 273.0017Q663.8079 272.1182 662.9096 271.2850Q662.0126 270.4519 661.0540 269.6900Q660.0943 268.9281 659.1198 268.1859Q658.1441 267.4449 657.1500 266.7297Q656.1558 266.0157 655.1187 265.3632Q654.0815 264.7107 653.0210 264.0962Q651.9618 263.4830 650.8828 262.9018Q649.8051 262.3205 648.7016 261.7897Q647.5969 261.2576 646.4700 260.7771Q645.3444 260.2966 644.2065 259.8419Q643.0686 259.3885 641.9196 258.9645Q640.7694 258.5406 639.6020 258.1719Q638.4333 257.8021 637.2598 257.4555Q636.0850 257.1078 634.8991 256.8030Q633.7121 256.4995 632.5250 256.2033Q631.3367 255.9084 630.1287 255.7081Q628.9195 255.5090 627.7300 255.2178Q626.5405 254.9253 625.3276 254.7643Q624.1135 254.6034 622.8920 254.5210Q621.6693 254.4399 620.4589 254.2568Q619.2472 254.0749 618.0393 253.8734Q616.8313 253.6719 615.6111 253.5760Q614.3896 253.4789 613.1657 253.4445Q611.9405 253.4101 610.7153 253.3929Q609.4902 253.3757 608.2662 253.3659Q607.0411 253.3561 605.8159 253.3598Q604.5907 253.3634 603.3656 253.3770Q602.1404 253.3905 600.9152 253.4138Q599.6913 253.4372 598.4673 253.4962Q597.2434 253.5551 596.0293 253.7075ZM457.1628 279.4716Q455.9597 279.6769 454.7702 279.9570Q453.5795 280.2372 452.3887 280.5088Q451.1979 280.7804 450.0514 281.2056Q448.9061 281.6307 447.7928 282.1358Q446.6807 282.6409 445.6239 283.2553Q444.5683 283.8709 443.5778 284.5849Q442.5874 285.3001 441.7038 286.1443Q440.8203 286.9873 440.0400 287.9274Q439.2609 288.8675 438.6600 289.9292Q438.0603 290.9897 438.6083 291.8314Q439.1564 292.6732 440.3742 292.7433Q441.5932 292.8133 442.8159 292.8145Q444.0386 292.8158 445.2601 292.8158Q446.4828 292.8158 447.7055 292.8158Q448.9282 292.8158 450.1510 292.8158Q451.3737 292.8158 452.5964 292.8158Q453.8191 292.8158 455.0406 292.8158Q456.2633 292.8158 457.4860 292.8158Q458.7087 292.8158 459.9314 292.8158Q461.1541 292.8158 462.3768 292.8158Q463.5983 292.8158 464.8210 292.8158Q466.0437 292.8158 467.2664 292.8158Q468.4891 292.8158 469.7118 292.8158Q470.9345 292.8158 472.1573 292.8158Q473.3787 292.8158 474.6014 292.8158Q475.8241 292.8158 477.0469 292.8158Q478.2696 292.8158 479.4923 292.8158Q480.7150 292.8158 481.9377 292.8158Q483.1592 292.8158 484.3819 292.8035Q485.6046 292.7912 486.6651 292.3525Q487.7244 291.9138 487.2979 290.7955Q486.8715 289.6773 486.1244 288.7114Q485.3785 287.7443 484.5220 286.8730Q483.6655 286.0005 482.7242 285.2227Q481.7816 284.4460 480.7420 283.8034Q479.7024 283.1607 478.6124 282.6101Q477.5212 282.0584 476.3857 281.6062Q475.2503 281.1539 474.0792 280.8049Q472.9093 280.4572 471.7124 280.2090Q470.5155 279.9607 469.3247 279.6867Q468.1328 279.4139 466.9162 279.3082Q465.6996 279.2025 464.4782 279.1902Q463.2554 279.1767 462.0327 279.1804Q460.8100 279.1829 459.5885 279.2246Q458.3671 279.2664 457.1628 279.4716ZM603.3975 280.8394Q602.1809 280.9905 600.9693 281.1908Q599.7589 281.3911 598.5398 281.5361Q597.3221 281.6811 596.1288 281.9625Q594.9356 282.2427 593.7682 282.6200Q592.6008 282.9972 591.4629 283.4556Q590.3250 283.9127 589.2276 284.4620Q588.1302 285.0113 587.0931 285.6675Q586.0572 286.3237 585.0716 287.0537Q584.0861 287.7836 583.2161 288.6487Q582.3473 289.5126 581.6124 290.4945Q580.8775 291.4775 580.2422 292.5270Q579.6069 293.5764 579.1031 294.6934Q578.5980 295.8105 578.2687 296.9926Q577.9394 298.1736 577.6432 299.3643Q577.3458 300.5563 577.2082 301.7729Q577.0693 302.9907 577.1123 304.2158Q577.1554 305.4410 577.3962 306.6428Q577.6383 307.8446 577.9430 309.0342Q578.2478 310.2225 578.6582 311.3776Q579.0687 312.5327 579.6425 313.6165Q580.2177 314.6992 580.9304 315.6982Q581.6431 316.6961 582.4431 317.6263Q583.2419 318.5565 584.1721 319.3553Q585.1011 320.1553 586.0953 320.8754Q587.0882 321.5955 588.1548 322.2013Q589.2215 322.8059 590.3348 323.3245Q591.4469 323.8431 592.6045 324.2474Q593.7621 324.6516 594.9369 325.0031Q596.1129 325.3558 597.3171 325.5843Q598.5202 325.8141 599.7429 325.9211Q600.9656 326.0280 602.1859 326.1644Q603.4049 326.3020 604.6288 326.3917Q605.8515 326.4826 607.0779 326.4470Q608.3043 326.4101 609.5246 326.2836Q610.7448 326.1558 611.9663 326.0378Q613.1878 325.9211 614.4068 325.7810Q615.6258 325.6421 616.8080 325.3177Q617.9914 324.9933 619.1649 324.6357Q620.3385 324.2781 621.4715 323.8062Q622.6045 323.3355 623.6994 322.7826Q624.7955 322.2308 625.8216 321.5586Q626.8477 320.8877 627.8062 320.1221Q628.7647 319.3565 629.6323 318.4902Q630.4999 317.6238 631.2630 316.6629Q632.0261 315.7019 632.6761 314.6635Q633.3262 313.6239 633.8227 312.5020Q634.3191 311.3813 634.6472 310.1991Q634.9753 309.0170 635.2715 307.8262Q635.5689 306.6354 635.7188 305.4189Q635.8687 304.2023 635.8196 302.9771Q635.7716 301.7532 635.5259 300.5514Q635.2789 299.3508 634.9802 298.1600Q634.6829 296.9693 634.2675 295.8166Q633.8522 294.6640 633.2758 293.5826Q632.6983 292.4999 632.0150 291.4812Q631.3318 290.4613 630.5355 289.5298Q629.7380 288.5983 628.8003 287.8094Q627.8615 287.0205 626.8477 286.3286Q625.8339 285.6380 624.7660 285.0334Q623.6994 284.4288 622.5799 283.9250Q621.4616 283.4212 620.3016 283.0193Q619.1428 282.6175 617.9680 282.2636Q616.7932 281.9109 615.5816 281.7229Q614.3699 281.5361 613.1546 281.3690Q611.9380 281.2031 610.7264 281.0065Q609.5160 280.8111 608.2920 280.7238Q607.0681 280.6366 605.8417 280.6624Q604.6153 280.6882 603.3975 280.8394Z" fill-rule="evenodd"/><path d="M724.5638682031405 273Q724.5638682031405 268 729.5638682031405 268L743.5638682031405 268Q748.5638682031405 268 748.5638682031405 273L748.5638682031405 287Q748.5638682031405 292 753.5638682031405 292L767.5638682031405 292Q772.5638682031405 292 772.5638682031405 297L772.5638682031405 311Q772.5638682031405 316 767.5638682031405 316L753.5638682031405 316Q748.5638682031405 316 748.5638682031405 321L748.5638682031405 335Q748.5638682031405 340 743.5638682031405 340L729.5638682031405 340Q724.5638682031405 340 724.5638682031405 335L724.5638682031405 321Q724.5638682031405 316 719.5638682031405 316L705.5638682031405 316Q700.5638682031405 316 700.5638682031405 311L700.5638682031405 297Q700.5638682031405 292 705.5638682031405 292L719.5638682031405 292Q724.5638682031405 292 724.5638682031405 287Z" fill-rule="evenodd"/></g>
  <filter id="shadow" filterUnits="userSpaceOnUse" x="0" y="0" width="1000" height="578"><feGaussianBlur in="SourceAlpha" stdDeviation="1.4" result="blur"/><feOffset in="blur" dx=".55" dy="2.5" result="offset"/><feFlood flood-color="#8c6b39" flood-opacity=".24"/><feComposite in2="offset" operator="in" result="cast"/><feMerge><feMergeNode in="cast"/><feMergeNode in="SourceGraphic"/></feMerge></filter>
  </defs><rect width="1000" height="578" fill="url(#base)"/><rect width="1000" height="578" fill="url(#ambient)"/><g filter="url(#shadow)"><use href="#shapes" transform="translate(0.8 3.2)" fill="url(#side)"/><use href="#shapes" fill="#f7efdf"/></g></svg>